# xmcd CD database file
#
# Track frame offsets:
#	150
#	35230
#	71247
#	94205
#	108215
#	133642
#	161260
#	185165
#	192240
#	221160
#	264432
#
# Disc length: 3993 seconds
#
# Revision: 8
# Processed by: cddbd v1.5.2PL0 Copyright (c) Steve Scherf et al.
# Submitted via: CDex 1.51
#
DISCID=a70f970b
DTITLE=Jeff Buckley - Live A L 'Olympia
DYEAR=2001
DGENRE=Rock
TTITLE0=Lover, You Should Have Come Over
TTITLE1=Dream Brother
TTITLE2=Eternal Life
TTITLE3=Kick Out The Jams
TTITLE4=Lilac Wine
TTITLE5=Grace
TTITLE6=That's All I Ask
TTITLE7=Kashmir
TTITLE8=Je N'en Connais Pas La Fin
TTITLE9=Hallelujah
TTITLE10=What Will You Say (featuring Alim Qasimov)
EXTD=YEAR: 2001
EXTT0=
EXTT1=
EXTT2=
EXTT3=
EXTT4=
EXTT5=
EXTT6=
EXTT7=
EXTT8=
EXTT9=
EXTT10=
PLAYORDER=
